<?xml version="1.0" encoding="UTF-8" standalone="no"?>
<svg
   xmlns:dc="http://purl.org/dc/elements/1.1/"
   xmlns:cc="http://creativecommons.org/ns#"
   xmlns:rdf="http://www.w3.org/1999/02/22-rdf-syntax-ns#"
   xmlns:svg="http://www.w3.org/2000/svg"
   xmlns="http://www.w3.org/2000/svg"
   xmlns:sodipodi="http://sodipodi.sourceforge.net/DTD/sodipodi-0.dtd"
   xmlns:inkscape="http://www.inkscape.org/namespaces/inkscape"
   version="1.1"
   viewBox="0 0 467.66925 244.67717"
   stroke-miterlimit="10"
   id="svg127"
   sodipodi:docname="CarOwner.svg"
   width="467.66925"
   height="244.67717"
   style="fill:none;stroke:none;stroke-linecap:square;stroke-miterlimit:10"
   inkscape:version="0.92.2 (5c3e80d, 2017-08-06)">
  <metadata
     id="metadata133">
    <rdf:RDF>
      <cc:Work
         rdf:about="">
        <dc:format>image/svg+xml</dc:format>
        <dc:type
           rdf:resource="http://purl.org/dc/dcmitype/StillImage" />
      </cc:Work>
    </rdf:RDF>
  </metadata>
  <defs
     id="defs131" />
  <sodipodi:namedview
     pagecolor="#ffffff"
     bordercolor="#666666"
     borderopacity="1"
     objecttolerance="10"
     gridtolerance="10"
     guidetolerance="10"
     inkscape:pageopacity="0"
     inkscape:pageshadow="2"
     inkscape:window-width="2560"
     inkscape:window-height="1326"
     id="namedview129"
     showgrid="false"
     inkscape:zoom="1.9445436"
     inkscape:cx="269.15194"
     inkscape:cy="92.491745"
     inkscape:window-x="0"
     inkscape:window-y="27"
     inkscape:window-maximized="1"
     inkscape:current-layer="g125" />
  <clipPath
     id="g39600f3d5c_0_0.0">
    <path
       d="M 0,0 H 960 V 540 H 0 Z"
       id="path2"
       inkscape:connector-curvature="0"
       style="clip-rule:nonzero" />
  </clipPath>
  <g
     clip-path="url(#g39600f3d5c_0_0.0)"
     id="g125"
     transform="translate(-241.68767,-127.71654)">
    <defs
       id="defs12">
      <radialGradient
         id="g39600f3d5c_0_0.1"
         gradientUnits="userSpaceOnUse"
         gradientTransform="scale(10.30203)"
         spreadMethod="pad"
         cx="36.280342"
         cy="29.150537"
         fx="36.280342"
         fy="29.150537"
         r="10.30203">
        <stop
           offset="0.0"
           stop-color="#f2f2f2"
           id="stop7" />
        <stop
           offset="1.0"
           stop-color="#a6a6a6"
           id="stop9" />
      </radialGradient>
    </defs>
    <path
       d="m 270.87927,274.2467 h 205.76376 v 52.12601 H 270.87927 Z"
       id="path14"
       style="fill:url(#g39600f3d5c_0_0.1);fill-rule:evenodd"
       inkscape:connector-curvature="0" />
    <path
       d="m 270.87927,274.2467 h 205.76376 v 52.12601 H 270.87927 Z"
       id="path16"
       inkscape:connector-curvature="0"
       style="fill-rule:evenodd;stroke:#595959;stroke-width:2;stroke-linecap:butt;stroke-linejoin:round" />
    <defs
       id="defs23">
      <radialGradient
         id="g39600f3d5c_0_0.2"
         gradientUnits="userSpaceOnUse"
         gradientTransform="scale(8.2706658)"
         spreadMethod="pad"
         cx="45.095341"
         cy="30.007708"
         fx="45.095341"
         fy="30.007708"
         r="8.2706661">
        <stop
           offset="0.0"
           stop-color="#f2f2f2"
           id="stop18" />
        <stop
           offset="1.0"
           stop-color="#a6a6a6"
           id="stop20" />
      </radialGradient>
    </defs>
    <path
       d="m 309.7244,274.2467 13.03152,-52.12598 h 100.42517 l 13.0315,52.12598 z"
       id="path25"
       style="fill:url(#g39600f3d5c_0_0.2);fill-rule:evenodd"
       inkscape:connector-curvature="0" />
    <path
       d="m 309.7244,274.2467 13.03152,-52.12598 h 100.42517 l 13.0315,52.12598 z"
       id="path27"
       inkscape:connector-curvature="0"
       style="fill-rule:evenodd;stroke:#595959;stroke-width:2;stroke-linecap:butt;stroke-linejoin:round" />
    <defs
       id="defs34">
      <radialGradient
         id="g39600f3d5c_0_0.3"
         gradientUnits="userSpaceOnUse"
         gradientTransform="scale(6.2297317)"
         spreadMethod="pad"
         cx="50.83783"
         cy="52.532776"
         fx="50.83783"
         fy="52.532776"
         r="6.2297316">
        <stop
           offset="0.0"
           stop-color="#424242"
           id="stop29" />
        <stop
           offset="1.0"
           stop-color="#010101"
           id="stop31" />
      </radialGradient>
    </defs>
    <path
       d="m 287.95013,327.2651 v 0 c 0,-14.3942 12.87445,-26.06302 28.75589,-26.06302 v 0 c 15.88147,0 28.75592,11.66882 28.75592,26.06302 v 0 c 0,14.39416 -12.87445,26.06299 -28.75592,26.06299 v 0 c -15.88144,0 -28.75589,-11.66882 -28.75589,-26.06299 z"
       id="path36"
       style="fill:url(#g39600f3d5c_0_0.3);fill-rule:evenodd"
       inkscape:connector-curvature="0" />
    <path
       d="m 287.95013,327.2651 v 0 c 0,-14.3942 12.87445,-26.06302 28.75589,-26.06302 v 0 c 15.88147,0 28.75592,11.66882 28.75592,26.06302 v 0 c 0,14.39416 -12.87445,26.06299 -28.75592,26.06299 v 0 c -15.88144,0 -28.75589,-11.66882 -28.75589,-26.06299 z"
       id="path38"
       inkscape:connector-curvature="0"
       style="fill-rule:evenodd;stroke:#595959;stroke-width:2;stroke-linecap:butt;stroke-linejoin:round" />
    <defs
       id="defs45">
      <radialGradient
         id="g39600f3d5c_0_0.4"
         gradientUnits="userSpaceOnUse"
         gradientTransform="scale(6.2297317)"
         spreadMethod="pad"
         cx="69.848351"
         cy="52.532776"
         fx="69.848351"
         fy="52.532776"
         r="6.2297316">
        <stop
           offset="0.0"
           stop-color="#424242"
           id="stop40" />
        <stop
           offset="1.0"
           stop-color="#010101"
           id="stop42" />
      </radialGradient>
    </defs>
    <path
       d="m 406.38058,327.2651 v 0 c 0,-14.3942 12.87445,-26.06302 28.75589,-26.06302 v 0 c 15.88147,0 28.75592,11.66882 28.75592,26.06302 v 0 c 0,14.39416 -12.87445,26.06299 -28.75592,26.06299 v 0 c -15.88144,0 -28.75589,-11.66882 -28.75589,-26.06299 z"
       id="path47"
       style="fill:url(#g39600f3d5c_0_0.4);fill-rule:evenodd"
       inkscape:connector-curvature="0" />
    <path
       d="m 406.38058,327.2651 v 0 c 0,-14.3942 12.87445,-26.06302 28.75589,-26.06302 v 0 c 15.88147,0 28.75592,11.66882 28.75592,26.06302 v 0 c 0,14.39416 -12.87445,26.06299 -28.75592,26.06299 v 0 c -15.88144,0 -28.75589,-11.66882 -28.75589,-26.06299 z"
       id="path49"
       inkscape:connector-curvature="0"
       style="fill-rule:evenodd;stroke:#595959;stroke-width:2;stroke-linecap:butt;stroke-linejoin:round" />
    <defs
       id="defs56">
      <radialGradient
         id="g39600f3d5c_0_0.5"
         gradientUnits="userSpaceOnUse"
         gradientTransform="scale(5.5375907)"
         spreadMethod="pad"
         cx="72.995728"
         cy="44.576744"
         fx="72.995728"
         fy="44.576744"
         r="5.5375905">
        <stop
           offset="0.0"
           stop-color="#d4e5f5"
           id="stop51" />
        <stop
           offset="1.0"
           stop-color="#70a4d5"
           id="stop53" />
      </radialGradient>
    </defs>
    <path
       d="m 380.40945,266.1706 9.66141,-38.64566 h 28.29922 l 9.66141,38.64566 z"
       id="path58"
       style="fill:url(#g39600f3d5c_0_0.5);fill-rule:evenodd"
       inkscape:connector-curvature="0" />
    <path
       d="m 380.40945,266.1706 9.66141,-38.64566 h 28.29922 l 9.66141,38.64566 z"
       id="path60"
       inkscape:connector-curvature="0"
       style="fill-rule:evenodd;stroke:#595959;stroke-width:2;stroke-linecap:butt;stroke-linejoin:round" />
    <defs
       id="defs67">
      <radialGradient
         id="g39600f3d5c_0_0.6"
         gradientUnits="userSpaceOnUse"
         gradientTransform="scale(5.638307)"
         spreadMethod="pad"
         cx="61.572624"
         cy="43.780476"
         fx="61.572624"
         fy="43.780476"
         r="5.6383071">
        <stop
           offset="0.0"
           stop-color="#d4e5f5"
           id="stop62" />
        <stop
           offset="1.0"
           stop-color="#70a4d5"
           id="stop64" />
      </radialGradient>
    </defs>
    <path
       d="m 321.92126,266.1706 9.66141,-38.64566 h 31.16534 l 9.66144,38.64566 z"
       id="path69"
       style="fill:url(#g39600f3d5c_0_0.6);fill-rule:evenodd"
       inkscape:connector-curvature="0" />
    <path
       d="m 321.92126,266.1706 9.66141,-38.64566 h 31.16534 l 9.66144,38.64566 z"
       id="path71"
       inkscape:connector-curvature="0"
       style="fill-rule:evenodd;stroke:#595959;stroke-width:2;stroke-linecap:butt;stroke-linejoin:round" />
    <path
       d="m 625.31494,211.21977 v 0 c 0,-8.87277 10.41248,-16.06557 23.2569,-16.06557 v 0 c 12.84442,0 23.25689,7.1928 23.25689,16.06557 v 0 c 0,8.87276 -10.41247,16.06557 -23.25689,16.06557 v 0 c -12.84442,0 -23.2569,-7.19281 -23.2569,-16.06557 z"
       id="path73"
       inkscape:connector-curvature="0"
       style="fill:#000000;fill-rule:evenodd" />
    <path
       d="m 614.76495,236.23897 v 0 c 0.44763,-4.24205 4.2677,-7.6104 8.53241,-7.52342 l 30.88684,0.62991 v 0 c 2.04797,0.0418 3.9267,0.89107 5.22284,2.36105 1.29614,1.46998 1.90356,3.44024 1.6886,5.47735 l -5.11914,48.51222 c -0.44763,4.24203 -4.26776,7.61038 -8.53247,7.5234 l -30.88684,-0.62991 c -4.26471,-0.087 -7.35901,-3.59634 -6.91138,-7.83838 z"
       id="path75"
       inkscape:connector-curvature="0"
       style="fill:#000000;fill-rule:evenodd" />
    <path
       d="m 608.1289,290.62973 21.41736,1.48032 -8.06299,58.92914 -21.41736,-1.48032 z"
       id="path77"
       inkscape:connector-curvature="0"
       style="fill:#000000;fill-rule:evenodd" />
    <path
       d="m 619.97034,232.87224 v 0 c 3.01331,-1.92671 6.3457,-0.72902 7.44305,2.67514 l 0.34113,1.05829 v 0 c 0.52698,1.63472 0.45746,3.57005 -0.19312,5.38023 -0.65063,1.81018 -1.82904,3.34693 -3.27612,4.27217 l -18.34759,11.7314 c -3.01331,1.9267 -6.34571,0.72901 -7.443,-2.67515 l -0.34118,-1.05827 c -1.09735,-3.40416 0.45587,-7.7257 3.46924,-9.65241 z"
       id="path79"
       inkscape:connector-curvature="0"
       style="fill:#000000;fill-rule:evenodd" />
    <path
       d="m 619.97034,232.87224 v 0 c 3.01331,-1.92671 6.3457,-0.72902 7.44305,2.67514 l 0.34113,1.05829 v 0 c 0.52698,1.63472 0.45746,3.57005 -0.19312,5.38023 -0.65063,1.81018 -1.82904,3.34693 -3.27612,4.27217 l -18.34759,11.7314 c -3.01331,1.9267 -6.34571,0.72901 -7.443,-2.67515 l -0.34118,-1.05827 c -1.09735,-3.40416 0.45587,-7.7257 3.46924,-9.65241 z"
       id="path81"
       inkscape:connector-curvature="0"
       style="fill-rule:evenodd;stroke:#000000;stroke-width:3;stroke-linecap:butt;stroke-linejoin:round" />
    <path
       d="m 611.7506,249.91772 v 0 c 1.16278,0.73866 1.24518,2.04959 0.18408,2.92805 l -7.685,6.36214 v 0 c -0.50952,0.42185 -1.22003,0.68552 -1.97515,0.73297 -0.75519,0.0475 -1.49311,-0.12512 -2.05146,-0.47986 l -37.58459,-23.87625 c -1.16272,-0.73866 -1.24518,-2.04959 -0.18402,-2.92804 l 7.68493,-6.36213 c 1.0611,-0.87847 2.8639,-0.99179 4.02668,-0.25313 z"
       id="path83"
       inkscape:connector-curvature="0"
       style="fill:#000000;fill-rule:evenodd" />
    <path
       d="m 611.7506,249.91772 v 0 c 1.16278,0.73866 1.24518,2.04959 0.18408,2.92805 l -7.685,6.36214 v 0 c -0.50952,0.42185 -1.22003,0.68552 -1.97515,0.73297 -0.75519,0.0475 -1.49311,-0.12512 -2.05146,-0.47986 l -37.58459,-23.87625 c -1.16272,-0.73866 -1.24518,-2.04959 -0.18402,-2.92804 l 7.68493,-6.36213 c 1.0611,-0.87847 2.8639,-0.99179 4.02668,-0.25313 z"
       id="path85"
       inkscape:connector-curvature="0"
       style="fill-rule:evenodd;stroke:#ffffff;stroke-width:3;stroke-linecap:butt;stroke-linejoin:round" />
    <path
       d="m 613.85596,198.92093 v 0 c 0,-3.002 15.54285,-5.43561 34.71588,-5.43561 v 0 c 19.17303,0 34.71588,2.43361 34.71588,5.43561 v 0 c 0,3.00201 -15.54285,5.43562 -34.71588,5.43562 v 0 c -19.17304,0 -34.71588,-2.43361 -34.71588,-5.43562 z"
       id="path87"
       inkscape:connector-curvature="0"
       style="fill:#000000;fill-rule:evenodd" />
    <path
       d="m 613.85596,198.92093 v 0 c 0,-3.002 15.54285,-5.43561 34.71588,-5.43561 v 0 c 19.17303,0 34.71588,2.43361 34.71588,5.43561 v 0 c 0,3.00201 -15.54285,5.43562 -34.71588,5.43562 v 0 c -19.17304,0 -34.71588,-2.43361 -34.71588,-5.43562 z"
       id="path89"
       inkscape:connector-curvature="0"
       style="fill-rule:evenodd;stroke:#595959;stroke-width:1;stroke-linecap:butt;stroke-linejoin:round" />
    <path
       d="m 628.52765,178.65858 h 40.08838 c 0.85205,0 1.66925,0.33847 2.27173,0.94098 0.60248,0.60251 0.94098,1.41968 0.94098,2.27174 v 16.06327 c 0,2.1e-4 -1.9e-4,3.8e-4 -3.7e-4,3.8e-4 l -46.51343,-3.8e-4 v 0 c -1.8e-4,0 -3.6e-4,-1.7e-4 -3.6e-4,-3.9e-4 l 3.6e-4,-16.06288 v 0 c 0,-1.77433 1.43842,-3.21272 3.21271,-3.21272 z"
       id="path91"
       inkscape:connector-curvature="0"
       style="fill:#000000;fill-rule:evenodd" />
    <path
       d="m 628.52765,178.65858 h 40.08838 c 0.85205,0 1.66925,0.33847 2.27173,0.94098 0.60248,0.60251 0.94098,1.41968 0.94098,2.27174 v 16.06327 c 0,2.1e-4 -1.9e-4,3.8e-4 -3.7e-4,3.8e-4 l -46.51343,-3.8e-4 v 0 c -1.8e-4,0 -3.6e-4,-1.7e-4 -3.6e-4,-3.9e-4 l 3.6e-4,-16.06288 v 0 c 0,-1.77433 1.43842,-3.21272 3.21271,-3.21272 z"
       id="path93"
       inkscape:connector-curvature="0"
       style="fill-rule:evenodd;stroke:#595959;stroke-width:1;stroke-linecap:butt;stroke-linejoin:round" />
    <path
       d="m 633.3153,294.24072 21.10236,-3.90552 6.89764,59.08661 -21.10236,3.90552 z"
       id="path95"
       inkscape:connector-curvature="0"
       style="fill:#000000;fill-rule:evenodd" />
    <path
       d="m 655.5865,237.66699 v 0 c -2.77429,-2.1675 -5.75134,-1.16499 -6.64941,2.23917 l -0.27918,1.05828 v 0 c -0.43127,1.63474 -0.31561,3.616 0.32147,5.50794 0.63715,1.89194 1.74353,3.53957 3.07575,4.58044 l 13.89966,10.85944 c 2.77429,2.16751 5.75134,1.16501 6.64941,-2.23917 l 0.27917,-1.05825 c 0.89808,-3.40418 -0.62292,-7.92089 -3.39721,-10.0884 z"
       id="path97"
       inkscape:connector-curvature="0"
       style="fill:#000000;fill-rule:evenodd" />
    <path
       d="m 655.5865,237.66699 v 0 c -2.77429,-2.1675 -5.75134,-1.16499 -6.64941,2.23917 l -0.27918,1.05828 v 0 c -0.43127,1.63474 -0.31561,3.616 0.32147,5.50794 0.63715,1.89194 1.74353,3.53957 3.07575,4.58044 l 13.89966,10.85944 c 2.77429,2.16751 5.75134,1.16501 6.64941,-2.23917 l 0.27917,-1.05825 c 0.89808,-3.40418 -0.62292,-7.92089 -3.39721,-10.0884 z"
       id="path99"
       inkscape:connector-curvature="0"
       style="fill-rule:evenodd;stroke:#000000;stroke-width:3;stroke-linecap:butt;stroke-linejoin:round" />
    <path
       d="m 669.0664,248.59305 v 0 c -0.56995,-1.14258 -1.62823,-1.22273 -2.36377,-0.17902 l -5.32709,7.55898 v 0 c -0.35321,0.5012 -0.58325,1.19984 -0.63946,1.94224 -0.0562,0.74237 0.066,1.46769 0.33966,2.01639 l 19.02106,38.13007 c 0.56994,1.14258 1.62829,1.22272 2.36383,0.17901 l 5.32702,-7.55896 c 0.73554,-1.04373 0.86981,-2.81607 0.29981,-3.95861 z"
       id="path101"
       inkscape:connector-curvature="0"
       style="fill:#000000;fill-rule:evenodd" />
    <path
       d="m 669.0664,248.59305 v 0 c -0.56995,-1.14258 -1.62823,-1.22273 -2.36377,-0.17902 l -5.32709,7.55898 v 0 c -0.35321,0.5012 -0.58325,1.19984 -0.63946,1.94224 -0.0562,0.74237 0.066,1.46769 0.33966,2.01639 l 19.02106,38.13007 c 0.56994,1.14258 1.62829,1.22272 2.36383,0.17901 l 5.32702,-7.55896 c 0.73554,-1.04373 0.86981,-2.81607 0.29981,-3.95861 z"
       id="path103"
       inkscape:connector-curvature="0"
       style="fill-rule:evenodd;stroke:#ffffff;stroke-width:3;stroke-linecap:butt;stroke-linejoin:round" />
    <path
       d="m 493.4895,284.55118 v 0 c 3.86383,0 6.99606,-3.13223 6.99606,-6.99606 h -6.99606 c 1.93192,0 3.49802,-1.56613 3.49802,-3.49802 0,-1.93191 -1.5661,-3.49805 -3.49802,-3.49805 h 6.99606 v -118.72835 0 c 0,-3.86381 3.13224,-6.99606 6.99607,-6.99606 h 83.95276 c 3.86383,0 6.99603,3.13225 6.99603,6.99606 0,3.86383 -3.1322,6.99607 -6.99603,6.99607 h -6.9961 v 118.72835 c 0,3.86383 -3.1322,6.99606 -6.99603,6.99606 z m 20.98816,-132.72047 v 0 c 0,3.86383 -3.1322,6.99606 -6.99603,6.99606 -1.93192,0 -3.49805,-1.56611 -3.49805,-3.49803 0,-1.9319 1.56613,-3.49803 3.49805,-3.49803 z"
       id="path105"
       inkscape:connector-curvature="0"
       style="fill:#ffffff;fill-rule:evenodd" />
    <path
       d="m 514.47766,151.8307 v 0 c 0,3.86383 -3.1322,6.99606 -6.99603,6.99606 -1.93192,0 -3.49805,-1.56611 -3.49805,-3.49803 0,-1.9319 1.56613,-3.49803 3.49805,-3.49803 z m -13.9921,125.72441 c 0,3.86383 -3.13223,6.99606 -6.99606,6.99606 -3.86383,0 -6.99606,-3.13223 -6.99606,-6.99606 0,-3.86383 3.13223,-6.99606 6.99606,-6.99606 v 0 c 1.93192,0 3.49802,1.56613 3.49802,3.49804 0,1.93189 -1.5661,3.49802 -3.49802,3.49802 z"
       id="path107"
       inkscape:connector-curvature="0"
       style="fill:#cbcbcb;fill-rule:evenodd" />
    <path
       d="m 500.48557,270.55905 v -118.72835 0 c 0,-3.86382 3.13223,-6.99606 6.99606,-6.99606 h 83.95276 c 3.86383,0 6.99604,3.13225 6.99604,6.99606 0,3.86383 -3.13221,6.99606 -6.99604,6.99606 h -6.99609 v 118.72835 c 0,3.86383 -3.1322,6.99607 -6.99603,6.99607 h -83.95276 v 0 c -3.86383,0 -6.99607,-3.13224 -6.99607,-6.99607 0,-3.86383 3.13224,-6.99606 6.99607,-6.99606 z m 6.99606,-125.72441 v 0 c 3.86383,0 6.99604,3.13225 6.99604,6.99606 0,3.86383 -3.13221,6.99607 -6.99604,6.99607 -1.93191,0 -3.49804,-1.56612 -3.49804,-3.49804 0,-1.9319 1.56613,-3.49803 3.49804,-3.49803 h 6.99604 m 69.96063,6.99607 H 507.48163 M 493.4895,270.55905 v 0 c 1.93192,0 3.49802,1.56613 3.49802,3.49805 0,1.93188 -1.5661,3.49801 -3.49802,3.49801 h 6.99607 m -6.99607,6.99607 v 0 c 3.86384,0 6.99607,-3.13224 6.99607,-6.99607 v -6.99606"
       id="path109"
       inkscape:connector-curvature="0"
       style="fill:#000000;fill-opacity:0;fill-rule:evenodd" />
    <path
       d="m 500.48557,270.55905 v -118.72835 0 c 0,-3.86382 3.13223,-6.99606 6.99606,-6.99606 h 83.95276 c 3.86383,0 6.99604,3.13225 6.99604,6.99606 0,3.86383 -3.13221,6.99606 -6.99604,6.99606 h -6.99609 v 118.72835 c 0,3.86383 -3.1322,6.99607 -6.99603,6.99607 h -83.95276 v 0 c -3.86383,0 -6.99607,-3.13224 -6.99607,-6.99607 0,-3.86383 3.13224,-6.99606 6.99607,-6.99606 z m 6.99606,-125.72441 v 0 c 3.86383,0 6.99604,3.13225 6.99604,6.99606 0,3.86383 -3.13221,6.99607 -6.99604,6.99607 -1.93191,0 -3.49804,-1.56612 -3.49804,-3.49804 0,-1.9319 1.56613,-3.49803 3.49804,-3.49803 h 6.99604 m 69.96063,6.99607 H 507.48163 M 493.4895,270.55905 v 0 c 1.93192,0 3.49802,1.56613 3.49802,3.49805 0,1.93188 -1.5661,3.49801 -3.49802,3.49801 h 6.99607 m -6.99607,6.99607 v 0 c 3.86384,0 6.99607,-3.13224 6.99607,-6.99607 v -6.99606"
       id="path111"
       inkscape:connector-curvature="0"
       style="fill-rule:evenodd;stroke:#595959;stroke-width:2;stroke-linecap:butt;stroke-linejoin:round" />
    <path
       d="m 519.3918,198.2047 2.60937,0.82812 q -0.59375,2.1875 -2,3.25 -1.39062,1.0625 -3.54687,1.0625 -2.65625,0 -4.375,-1.8125 -1.70309,-1.82812 -1.70309,-4.98437 0,-3.32813 1.71871,-5.17188 1.71875,-1.84375 4.51563,-1.84375 2.45312,0 3.98437,1.4375 0.92188,0.85938 1.375,2.46875 l -2.67187,0.64063 q -0.23438,-1.04688 -0.98438,-1.64063 -0.75,-0.60937 -1.82812,-0.60937 -1.48438,0 -2.42188,1.07812 -0.92187,1.0625 -0.92187,3.4375 0,2.53125 0.90625,3.60938 0.92187,1.07812 2.375,1.07812 1.07812,0 1.84375,-0.67187 0.78125,-0.6875 1.125,-2.15625 z m 6.81671,-1.8125 -2.32812,-0.42188 q 0.40625,-1.40625 1.35937,-2.07812 0.95313,-0.67188 2.84375,-0.67188 1.70313,0 2.54688,0.40625 0.84375,0.40625 1.17187,1.03125 0.34375,0.625 0.34375,2.28125 l -0.0156,3 q 0,1.26563 0.10937,1.875 0.125,0.60938 0.46875,1.29688 h -2.53125 q -0.10937,-0.25 -0.25,-0.75 -0.0625,-0.23438 -0.0937,-0.3125 -0.65625,0.64062 -1.40625,0.96875 -0.73437,0.3125 -1.59375,0.3125 -1.48437,0 -2.34375,-0.8125 -0.85937,-0.8125 -0.85937,-2.04688 0,-0.82812 0.39062,-1.46875 0.39063,-0.64062 1.09375,-0.96875 0.70313,-0.34375 2.03125,-0.60937 1.79688,-0.32813 2.48438,-0.625 v -0.25 q 0,-0.75 -0.35938,-1.0625 -0.35937,-0.3125 -1.375,-0.3125 -0.6875,0 -1.07812,0.28125 -0.375,0.26562 -0.60938,0.9375 z m 3.42188,2.07812 q -0.48438,0.15625 -1.5625,0.39063 -1.0625,0.21875 -1.39063,0.4375 -0.5,0.35937 -0.5,0.90625 0,0.53125 0.40625,0.9375 0.40625,0.39062 1.01563,0.39062 0.70312,0 1.32812,-0.46875 0.46875,-0.34375 0.60938,-0.84375 0.0937,-0.32812 0.0937,-1.25 z m 7.50073,4.64063 h -2.5625 v -9.67188 h 2.375 v 1.375 q 0.60937,-0.98437 1.09375,-1.28125 0.48437,-0.3125 1.10937,-0.3125 0.875,0 1.6875,0.48438 l -0.79687,2.23437 q -0.64063,-0.42187 -1.20313,-0.42187 -0.53125,0 -0.90625,0.29687 -0.375,0.29688 -0.59375,1.07813 -0.20312,0.76562 -0.20312,3.23437 z"
       id="path113"
       inkscape:connector-curvature="0"
       style="fill:#000000;fill-rule:nonzero" />
    <path
       d="m 510.29807,218.5172 q 0,-2.04688 0.60937,-3.42188 0.45313,-1.03125 1.23435,-1.82812 0.79687,-0.8125 1.73437,-1.20313 1.25,-0.53125 2.875,-0.53125 2.95313,0 4.71875,1.82813 1.78125,1.82812 1.78125,5.09375 0,3.23437 -1.76562,5.0625 -1.75,1.82812 -4.6875,1.82812 -2.98438,0 -4.75,-1.8125 -1.74997,-1.82812 -1.74997,-5.01562 z m 2.78122,-0.0937 q 0,2.26562 1.04687,3.4375 1.04688,1.17187 2.65625,1.17187 1.60938,0 2.64063,-1.15625 1.04687,-1.17187 1.04687,-3.48437 0,-2.29688 -1.01562,-3.42188 -1,-1.14062 -2.67188,-1.14062 -1.67187,0 -2.6875,1.15625 -1.01562,1.14062 -1.01562,3.4375 z m 14.05835,6.6875 -3.0625,-9.67188 h 2.48437 l 1.8125,6.34375 1.67188,-6.34375 h 2.46875 l 1.60937,6.34375 1.85938,-6.34375 h 2.51562 l -3.10937,9.67188 h -2.45313 l -1.67187,-6.21875 -1.64063,6.21875 z m 21.51141,0 h -2.5625 v -4.9375 q 0,-1.5625 -0.17187,-2.01563 -0.15625,-0.46875 -0.53125,-0.71875 -0.35938,-0.26562 -0.875,-0.26562 -0.67188,0 -1.20313,0.375 -0.53125,0.35937 -0.73437,0.96875 -0.1875,0.59375 -0.1875,2.21875 v 4.375 h -2.54688 v -9.67188 h 2.375 v 1.42188 q 1.26563,-1.64063 3.1875,-1.64063 0.84375,0 1.54688,0.3125 0.70312,0.29688 1.0625,0.78125 0.35937,0.46875 0.5,1.07813 0.14062,0.59375 0.14062,1.70312 z m 8.19287,-3.07813 2.54688,0.42188 q -0.48438,1.40625 -1.54688,2.14062 -1.0625,0.73438 -2.65625,0.73438 -2.51562,0 -3.73437,-1.65625 -0.95313,-1.3125 -0.95313,-3.32813 0,-2.40625 1.25,-3.76562 1.26563,-1.35938 3.1875,-1.35938 2.15625,0 3.40625,1.42188 1.25,1.42187 1.1875,4.375 h -6.40625 q 0.0312,1.14062 0.60938,1.78125 0.59375,0.625 1.48437,0.625 0.59375,0 1,-0.32813 0.42188,-0.32812 0.625,-1.0625 z m 0.15625,-2.59375 q -0.0312,-1.10937 -0.57812,-1.6875 -0.54688,-0.57812 -1.32813,-0.57812 -0.84375,0 -1.39062,0.60937 -0.54688,0.60938 -0.53125,1.65625 z m 7.0788,5.67188 h -2.5625 v -9.67188 h 2.375 v 1.375 q 0.60938,-0.98437 1.09375,-1.28125 0.48438,-0.3125 1.10938,-0.3125 0.875,0 1.6875,0.48438 l -0.79688,2.23437 q -0.64062,-0.42187 -1.20312,-0.42187 -0.53125,0 -0.90625,0.29687 -0.375,0.29688 -0.59375,1.07813 -0.20313,0.76562 -0.20313,3.23437 z"
       id="path115"
       inkscape:connector-curvature="0"
       style="fill:#000000;fill-rule:nonzero" />
    <path
       d="m 550.84454,256.45987 7.39941,-1.2e-4 3.69983,-6.01233 3.69977,6.01233 7.39941,1.2e-4 -3.69958,6.01242 3.69958,6.01245 -7.39941,9e-5 -3.69977,6.01233 -3.69983,-6.01233 -7.39941,-9e-5 3.69965,-6.01245 z"
       id="path117"
       inkscape:connector-curvature="0"
       style="fill:#ff0000;fill-rule:evenodd" />
    <path
       d="m 548.8159,261.259 6.617,-2.77719 0.11243,-6.76611 6.5047,3.98895 6.61707,-2.77701 -0.11225,6.76611 6.50464,3.98911 -6.617,2.77719 -0.11243,6.76611 -6.50476,-3.98892 -6.61707,2.77701 0.11231,-6.76614 z"
       id="path119"
       inkscape:connector-curvature="0"
       style="fill:#ff0000;fill-rule:evenodd" />
    <path
       d="M 242.68767,128.71654 H 708.35692 V 371.39371 H 242.68767 Z"
       id="path121"
       inkscape:connector-curvature="0"
       style="fill:#000000;fill-opacity:0;fill-rule:evenodd" />
    <path
       d="M 242.68767,128.71654 H 708.35692 V 371.39371 H 242.68767 Z"
       id="path123"
       inkscape:connector-curvature="0"
       style="fill-rule:evenodd;stroke:#595959;stroke-width:2;stroke-linecap:butt;stroke-linejoin:round" />
  </g>
</svg>
