<?xml version="1.0" encoding="UTF-8" standalone="no"?>
<svg
   xmlns:dc="http://purl.org/dc/elements/1.1/"
   xmlns:cc="http://creativecommons.org/ns#"
   xmlns:rdf="http://www.w3.org/1999/02/22-rdf-syntax-ns#"
   xmlns:svg="http://www.w3.org/2000/svg"
   xmlns="http://www.w3.org/2000/svg"
   xmlns:sodipodi="http://sodipodi.sourceforge.net/DTD/sodipodi-0.dtd"
   xmlns:inkscape="http://www.inkscape.org/namespaces/inkscape"
   version="1.1"
   viewBox="0 0 478.00787 269"
   stroke-miterlimit="10"
   id="svg91"
   sodipodi:docname="copyleft.svg"
   width="478.00787"
   height="269"
   style="fill:none;stroke:none;stroke-linecap:square;stroke-miterlimit:10"
   inkscape:version="0.92.2 (5c3e80d, 2017-08-06)">
  <metadata
     id="metadata97">
    <rdf:RDF>
      <cc:Work
         rdf:about="">
        <dc:format>image/svg+xml</dc:format>
        <dc:type
           rdf:resource="http://purl.org/dc/dcmitype/StillImage" />
      </cc:Work>
    </rdf:RDF>
  </metadata>
  <defs
     id="defs95" />
  <sodipodi:namedview
     pagecolor="#ffffff"
     bordercolor="#666666"
     borderopacity="1"
     objecttolerance="10"
     gridtolerance="10"
     guidetolerance="10"
     inkscape:pageopacity="0"
     inkscape:pageshadow="2"
     inkscape:window-width="1920"
     inkscape:window-height="1135"
     id="namedview93"
     showgrid="false"
     inkscape:zoom="1.5962963"
     inkscape:cx="227.5"
     inkscape:cy="134.5"
     inkscape:window-x="0"
     inkscape:window-y="28"
     inkscape:window-maximized="1"
     inkscape:current-layer="g89" />
  <clipPath
     id="g3970c0bd8c_1_0.0">
    <path
       d="M 0,0 H 960 V 540 H 0 Z"
       id="path64"
       inkscape:connector-curvature="0"
       style="clip-rule:nonzero" />
  </clipPath>
  <g
     clip-path="url(#g3970c0bd8c_1_0.0)"
     id="g89"
     transform="translate(-252.5,-135.5)">
    <path
       d="M 253,136 H 730.00787 V 404 H 253 Z"
       id="path69"
       inkscape:connector-curvature="0"
       style="fill:#000000;fill-opacity:0;fill-rule:evenodd" />
    <path
       d="M 253,136 H 730.00787 V 404 H 253 Z"
       id="path71"
       inkscape:connector-curvature="0"
       style="fill-rule:evenodd;stroke:#000000;stroke-width:1;stroke-linecap:butt;stroke-linejoin:round" />
    <path
       d="m 280,242.00525 v 0 c 0,-40.04282 32.2355,-72.50394 72,-72.50394 v 0 c 19.09558,0 37.40906,7.63878 50.91168,21.23592 C 416.41431,204.33435 424,222.77601 424,242.00525 v 0 c 0,40.04281 -32.2355,72.50394 -72,72.50394 v 0 c -39.7645,0 -72,-32.46112 -72,-72.50394 z"
       id="path73"
       inkscape:connector-curvature="0"
       style="fill:#000000;fill-opacity:0;fill-rule:evenodd" />
    <path
       d="m 280,242.00525 v 0 c 0,-40.04282 32.2355,-72.50394 72,-72.50394 v 0 c 19.09558,0 37.40906,7.63878 50.91168,21.23592 C 416.41431,204.33435 424,222.77601 424,242.00525 v 0 c 0,40.04281 -32.2355,72.50394 -72,72.50394 v 0 c -39.7645,0 -72,-32.46112 -72,-72.50394 z"
       id="path75"
       inkscape:connector-curvature="0"
       style="fill-rule:evenodd;stroke:#000000;stroke-width:16;stroke-linecap:butt;stroke-linejoin:round" />
    <path
       d="m 354.90744,203.5013 c -7.40521,0 -14.19052,1.81308 -20.3559,5.43922 -6.16537,3.62615 -11.05145,8.52472 -14.65826,14.69571 -3.59552,6.17101 -5.39328,12.88265 -5.39328,20.13494 0,7.3069 1.81467,14.05131 5.444,20.23323 3.64063,6.17099 8.54361,11.06958 14.70898,14.69571 6.16538,3.61523 12.91687,5.42285 20.25446,5.42285 10.45972,0 18.94135,-2.88346 25.44486,-8.65033 0.76644,-0.80826 1.14965,-1.74756 1.14965,-2.8179 0,-1.13593 -0.38321,-2.05338 -1.14965,-2.75239 -0.75519,-0.70993 -1.6569,-1.06491 -2.70511,-1.06491 -0.75519,0 -1.51599,0.26761 -2.28244,0.80277 -6.08646,4.69653 -12.90558,7.04477 -20.45731,7.04477 -5.88361,0 -11.32199,-1.47449 -16.31515,-4.42346 -4.98188,-2.95987 -8.92682,-6.95191 -11.83481,-11.97611 -2.90799,-5.03509 -4.36197,-10.53984 -4.36197,-16.51423 0,-5.84334 1.47088,-11.2771 4.41269,-16.30127 2.9418,-5.0351 6.90365,-9.04351 11.88553,-12.02526 4.99316,-2.99266 10.39773,-4.48898 16.21371,-4.48898 4.22672,0 7.92932,0.53517 11.10782,1.60554 3.18976,1.07038 6.13718,2.77968 8.84229,5.12793 0.68756,0.61165 1.5498,0.91747 2.58676,0.91747 0.55227,0 1.07077,-0.13107 1.55542,-0.3932 0.48468,-0.27305 0.80026,-0.6444 0.9468,-1.11405 0.48465,-0.20752 0.86225,-0.52972 1.13276,-0.96661 0.28176,-0.43689 0.42266,-0.92292 0.42266,-1.4581 0,-1.00484 -0.3832,-1.77484 -1.14965,-2.31003 -3.8097,-3.09096 -7.76026,-5.34093 -11.85175,-6.74988 -4.08017,-1.40895 -8.61124,-2.11343 -13.59311,-2.11343 z"
       id="path77"
       inkscape:connector-curvature="0"
       style="fill:#000000;fill-opacity:0;fill-rule:evenodd" />
    <path
       d="m 354.90744,203.5013 c -7.40521,0 -14.19052,1.81308 -20.3559,5.43922 -6.16537,3.62615 -11.05145,8.52472 -14.65826,14.69571 -3.59552,6.17101 -5.39328,12.88265 -5.39328,20.13494 0,7.3069 1.81467,14.05131 5.444,20.23323 3.64063,6.17099 8.54361,11.06958 14.70898,14.69571 6.16538,3.61523 12.91687,5.42285 20.25446,5.42285 10.45972,0 18.94135,-2.88346 25.44486,-8.65033 0.76644,-0.80826 1.14965,-1.74756 1.14965,-2.8179 0,-1.13593 -0.38321,-2.05338 -1.14965,-2.75239 -0.75519,-0.70993 -1.6569,-1.06491 -2.70511,-1.06491 -0.75519,0 -1.51599,0.26761 -2.28244,0.80277 -6.08646,4.69653 -12.90558,7.04477 -20.45731,7.04477 -5.88361,0 -11.32199,-1.47449 -16.31515,-4.42346 -4.98188,-2.95987 -8.92682,-6.95191 -11.83481,-11.97611 -2.90799,-5.03509 -4.36197,-10.53984 -4.36197,-16.51423 0,-5.84334 1.47088,-11.2771 4.41269,-16.30127 2.9418,-5.0351 6.90365,-9.04351 11.88553,-12.02526 4.99316,-2.99266 10.39773,-4.48898 16.21371,-4.48898 4.22672,0 7.92932,0.53517 11.10782,1.60554 3.18976,1.07038 6.13718,2.77968 8.84229,5.12793 0.68756,0.61165 1.5498,0.91747 2.58676,0.91747 0.55227,0 1.07077,-0.13107 1.55542,-0.3932 0.48468,-0.27305 0.80026,-0.6444 0.9468,-1.11405 0.48465,-0.20752 0.86225,-0.52972 1.13276,-0.96661 0.28176,-0.43689 0.42266,-0.92292 0.42266,-1.4581 0,-1.00484 -0.3832,-1.77484 -1.14965,-2.31003 -3.8097,-3.09096 -7.76026,-5.34093 -11.85175,-6.74988 -4.08017,-1.40895 -8.61124,-2.11343 -13.59311,-2.11343 z"
       id="path79"
       inkscape:connector-curvature="0"
       style="fill-rule:evenodd;stroke:#000000;stroke-width:16;stroke-linecap:butt;stroke-linejoin:round" />
    <path
       d="m 681.00354,242.00525 v 0 c 0,-40.04282 -32.45471,-72.50394 -72.48956,-72.50394 v 0 c -19.22546,0 -37.66345,7.63878 -51.25793,21.23592 -13.59443,13.59712 -21.23169,32.03878 -21.23169,51.26802 v 0 c 0,40.04281 32.45471,72.50394 72.48962,72.50394 v 0 c 40.03485,0 72.48956,-32.46112 72.48956,-72.50394 z"
       id="path81"
       inkscape:connector-curvature="0"
       style="fill:#000000;fill-opacity:0;fill-rule:evenodd" />
    <path
       d="m 681.00354,242.00525 v 0 c 0,-40.04282 -32.45471,-72.50394 -72.48956,-72.50394 v 0 c -19.22546,0 -37.66345,7.63878 -51.25793,21.23592 -13.59443,13.59712 -21.23169,32.03878 -21.23169,51.26802 v 0 c 0,40.04281 32.45471,72.50394 72.48962,72.50394 v 0 c 40.03485,0 72.48956,-32.46112 72.48956,-72.50394 z"
       id="path83"
       inkscape:connector-curvature="0"
       style="fill-rule:evenodd;stroke:#000000;stroke-width:16;stroke-linecap:butt;stroke-linejoin:round" />
    <path
       d="m 605.58673,203.5013 c 7.45557,0 14.28705,1.81308 20.49432,5.43922 6.20728,3.62615 11.12659,8.52472 14.75794,14.69571 3.61999,6.17101 5.42999,12.88265 5.42999,20.13494 0,7.3069 -1.82702,14.05131 -5.48108,20.23323 -3.66534,6.17099 -8.60168,11.06958 -14.80896,14.69571 -6.20733,3.61523 -13.0047,5.42285 -20.39221,5.42285 -10.53082,0 -19.07013,-2.88346 -25.61786,-8.65033 -0.77167,-0.80826 -1.15747,-1.74756 -1.15747,-2.8179 0,-1.13593 0.3858,-2.05338 1.15747,-2.75239 0.76032,-0.70993 1.66815,-1.06491 2.72351,-1.06491 0.76032,0 1.52631,0.26761 2.29792,0.80277 6.12786,4.69653 12.99334,7.04477 20.59643,7.04477 5.92365,0 11.39899,-1.47449 16.42609,-4.42346 5.01581,-2.95987 8.98755,-6.95191 11.91528,-11.97611 2.9278,-5.03509 4.39166,-10.53984 4.39166,-16.51423 0,-5.84334 -1.48089,-11.2771 -4.44269,-16.30127 -2.96179,-5.0351 -6.95062,-9.04351 -11.96637,-12.02526 -5.02709,-2.99266 -10.46844,-4.48898 -16.32397,-4.48898 -4.25543,0 -7.98322,0.53517 -11.18335,1.60554 -3.21143,1.07038 -6.17889,2.77968 -8.90241,5.12793 -0.6922,0.61165 -1.56036,0.91747 -2.60437,0.91747 -0.55603,0 -1.078,-0.13107 -1.56597,-0.3932 -0.48798,-0.27305 -0.80573,-0.6444 -0.95325,-1.11405 -0.48792,-0.20752 -0.8681,-0.52972 -1.14044,-0.96661 -0.28369,-0.43689 -0.42554,-0.92292 -0.42554,-1.4581 0,-1.00484 0.3858,-1.77484 1.15747,-2.31003 3.83557,-3.09096 7.81305,-5.34093 11.93231,-6.74988 4.10791,-1.40895 8.6698,-2.11343 13.68555,-2.11343 z"
       id="path85"
       inkscape:connector-curvature="0"
       style="fill:#000000;fill-opacity:0;fill-rule:evenodd" />
    <path
       d="m 605.58673,203.5013 c 7.45557,0 14.28705,1.81308 20.49432,5.43922 6.20728,3.62615 11.12659,8.52472 14.75794,14.69571 3.61999,6.17101 5.42999,12.88265 5.42999,20.13494 0,7.3069 -1.82702,14.05131 -5.48108,20.23323 -3.66534,6.17099 -8.60168,11.06958 -14.80896,14.69571 -6.20733,3.61523 -13.0047,5.42285 -20.39221,5.42285 -10.53082,0 -19.07013,-2.88346 -25.61786,-8.65033 -0.77167,-0.80826 -1.15747,-1.74756 -1.15747,-2.8179 0,-1.13593 0.3858,-2.05338 1.15747,-2.75239 0.76032,-0.70993 1.66815,-1.06491 2.72351,-1.06491 0.76032,0 1.52631,0.26761 2.29792,0.80277 6.12786,4.69653 12.99334,7.04477 20.59643,7.04477 5.92365,0 11.39899,-1.47449 16.42609,-4.42346 5.01581,-2.95987 8.98755,-6.95191 11.91528,-11.97611 2.9278,-5.03509 4.39166,-10.53984 4.39166,-16.51423 0,-5.84334 -1.48089,-11.2771 -4.44269,-16.30127 -2.96179,-5.0351 -6.95062,-9.04351 -11.96637,-12.02526 -5.02709,-2.99266 -10.46844,-4.48898 -16.32397,-4.48898 -4.25543,0 -7.98322,0.53517 -11.18335,1.60554 -3.21143,1.07038 -6.17889,2.77968 -8.90241,5.12793 -0.6922,0.61165 -1.56036,0.91747 -2.60437,0.91747 -0.55603,0 -1.078,-0.13107 -1.56597,-0.3932 -0.48798,-0.27305 -0.80573,-0.6444 -0.95325,-1.11405 -0.48792,-0.20752 -0.8681,-0.52972 -1.14044,-0.96661 -0.28369,-0.43689 -0.42554,-0.92292 -0.42554,-1.4581 0,-1.00484 0.3858,-1.77484 1.15747,-2.31003 3.83557,-3.09096 7.81305,-5.34093 11.93231,-6.74988 4.10791,-1.40895 8.6698,-2.11343 13.68555,-2.11343 z"
       id="path87"
       inkscape:connector-curvature="0"
       style="fill-rule:evenodd;stroke:#000000;stroke-width:16;stroke-linecap:butt;stroke-linejoin:round" />
  </g>
</svg>
