<?xml version="1.0" encoding="UTF-8" standalone="no"?>
<svg
   xmlns:dc="http://purl.org/dc/elements/1.1/"
   xmlns:cc="http://creativecommons.org/ns#"
   xmlns:rdf="http://www.w3.org/1999/02/22-rdf-syntax-ns#"
   xmlns:svg="http://www.w3.org/2000/svg"
   xmlns="http://www.w3.org/2000/svg"
   xmlns:sodipodi="http://sodipodi.sourceforge.net/DTD/sodipodi-0.dtd"
   xmlns:inkscape="http://www.inkscape.org/namespaces/inkscape"
   version="1.1"
   viewBox="0 0 478.00787 269"
   stroke-miterlimit="10"
   id="svg245"
   sodipodi:docname="free.svg"
   width="478.00787"
   height="269"
   style="fill:none;stroke:none;stroke-linecap:square;stroke-miterlimit:10"
   inkscape:version="0.92.2 (5c3e80d, 2017-08-06)">
  <metadata
     id="metadata251">
    <rdf:RDF>
      <cc:Work
         rdf:about="">
        <dc:format>image/svg+xml</dc:format>
        <dc:type
           rdf:resource="http://purl.org/dc/dcmitype/StillImage" />
      </cc:Work>
    </rdf:RDF>
  </metadata>
  <defs
     id="defs249" />
  <sodipodi:namedview
     pagecolor="#ffffff"
     bordercolor="#666666"
     borderopacity="1"
     objecttolerance="10"
     gridtolerance="10"
     guidetolerance="10"
     inkscape:pageopacity="0"
     inkscape:pageshadow="2"
     inkscape:window-width="1920"
     inkscape:window-height="1135"
     id="namedview247"
     showgrid="false"
     inkscape:zoom="1.5962963"
     inkscape:cx="274.5"
     inkscape:cy="115.00131"
     inkscape:window-x="0"
     inkscape:window-y="28"
     inkscape:window-maximized="1"
     inkscape:current-layer="g243" />
  <clipPath
     id="g3970c0bd8c_0_0.0">
    <path
       d="M 0,0 H 960 V 540 H 0 Z"
       id="path141"
       inkscape:connector-curvature="0"
       style="clip-rule:nonzero" />
  </clipPath>
  <g
     clip-path="url(#g3970c0bd8c_0_0.0)"
     id="g243"
     transform="translate(-205.5,-116.00131)">
    <defs
       id="defs151">
      <radialGradient
         id="g3970c0bd8c_0_0.1"
         gradientUnits="userSpaceOnUse"
         gradientTransform="scale(7.877471)"
         spreadMethod="pad"
         cx="37.002617"
         cy="25.869385"
         fx="37.002617"
         fy="25.869385"
         r="7.877471">
        <stop
           offset="0.0"
           stop-color="#fff6db"
           id="stop146" />
        <stop
           offset="1.0"
           stop-color="#fad25c"
           id="stop148" />
      </radialGradient>
    </defs>
    <path
       d="m 253.39546,189.77791 v 0 c -0.74992,-6.61458 1.71222,-13.16261 6.34166,-16.86552 4.62942,-3.70293 10.61426,-3.9113 15.41486,-0.53675 v 0 c 1.70053,-3.84599 4.81301,-6.50137 8.39593,-7.16296 3.58295,-0.66159 7.21552,0.74834 9.79898,3.8033 v 0 c 1.44861,-3.48703 4.29303,-5.82987 7.5239,-6.19716 3.23083,-0.36728 6.39087,1.29297 8.35876,4.3916 v 0 c 2.61716,-3.69624 6.78113,-5.25252 10.69016,-3.99541 3.90899,1.25711 6.86093,5.10179 7.57852,9.87046 v 0 c 3.20645,1.04974 5.87738,3.71833 7.32266,7.31631 1.44531,3.59796 1.52319,7.77234 0.21356,11.44461 v 0 c 3.15741,4.93227 3.89603,11.50444 1.94016,17.26393 -1.95584,5.75948 -6.31235,9.84095 -11.4437,10.7213 -0.0362,5.40547 -2.5061,10.36546 -6.45782,12.96819 -3.95175,2.60272 -8.76816,2.44174 -12.59281,-0.42089 -1.62909,6.474 -6.21444,11.23749 -11.77502,12.2325 -5.56058,0.995 -11.09952,-1.95686 -14.22382,-7.58029 -3.82974,2.7718 -8.42511,3.57027 -12.74948,2.21529 -4.32434,-1.35498 -8.01345,-4.74929 -10.23513,-9.41723 v 0 c -3.9135,0.54967 -7.69733,-1.88392 -9.47356,-6.09298 -1.77625,-4.20906 -1.16678,-9.29759 1.52591,-12.74016 v 0 c -3.49095,-2.4661 -5.27225,-7.35963 -4.41501,-12.12885 0.85724,-4.76921 4.15875,-8.33335 8.18294,-8.83389 z"
       id="path153"
       inkscape:connector-curvature="0"
       style="fill:url(#g3970c0bd8c_0_0.1);fill-rule:evenodd" />
    <path
       d="m 249.55017,210.99557 v 0 c 1.64738,1.16376 3.55051,1.69167 5.45384,1.51285 m 2.49294,17.32072 c 0.81851,-0.11496 1.62079,-0.35841 2.38617,-0.72406 m 20.59732,7.92569 c -0.57569,-1.03618 -1.05768,-2.1434 -1.43778,-3.30284 m 27.43762,-1.34956 v 0 c 0.297,-1.1803 0.48944,-2.3951 0.5741,-3.6241 m 18.4758,-8.92275 c 0.0385,-5.75497 -2.68487,-11.02427 -7.00037,-13.5446 M 335.0336,191.8469 c -0.69888,1.95967 -1.76578,3.69808 -3.1171,5.07889 m -4.41845,-23.84033 v 0 c 0.11908,0.79137 0.17419,1.59462 0.16458,2.39863 m -18.43296,-8.27345 v 0 c -0.65283,0.92203 -1.1907,1.95239 -1.59683,3.05899 m -14.28598,-1.25383 v 0 c -0.3479,0.83747 -0.60769,1.72367 -0.77341,2.63816 m -17.42175,0.72158 v 0 c 1.01581,0.71407 1.95557,1.57351 2.79865,2.55947 m -24.55489,14.84289 v 0 c 0.10336,0.91167 0.26666,1.81209 0.4884,2.69284"
       id="path155"
       inkscape:connector-curvature="0"
       style="fill:#000000;fill-opacity:0;fill-rule:evenodd" />
    <path
       d="m 253.39546,189.77791 v 0 c -0.74992,-6.61458 1.71222,-13.16261 6.34166,-16.86552 4.62942,-3.70293 10.61426,-3.9113 15.41486,-0.53675 v 0 c 1.70053,-3.84599 4.81301,-6.50137 8.39593,-7.16296 3.58295,-0.66159 7.21552,0.74834 9.79898,3.8033 v 0 c 1.44861,-3.48703 4.29303,-5.82987 7.5239,-6.19716 3.23083,-0.36728 6.39087,1.29297 8.35876,4.3916 v 0 c 2.61716,-3.69624 6.78113,-5.25252 10.69016,-3.99541 3.90899,1.25711 6.86093,5.10179 7.57852,9.87046 v 0 c 3.20645,1.04974 5.87738,3.71833 7.32266,7.31631 1.44531,3.59796 1.52319,7.77234 0.21356,11.44461 v 0 c 3.15741,4.93227 3.89603,11.50444 1.94016,17.26393 -1.95584,5.75948 -6.31235,9.84095 -11.4437,10.7213 -0.0362,5.40547 -2.5061,10.36546 -6.45782,12.96819 -3.95175,2.60272 -8.76816,2.44174 -12.59281,-0.42089 -1.62909,6.474 -6.21444,11.23749 -11.77502,12.2325 -5.56058,0.995 -11.09952,-1.95686 -14.22382,-7.58029 -3.82974,2.7718 -8.42511,3.57027 -12.74948,2.21529 -4.32434,-1.35498 -8.01345,-4.74929 -10.23513,-9.41723 v 0 c -3.9135,0.54967 -7.69733,-1.88392 -9.47356,-6.09298 -1.77625,-4.20906 -1.16678,-9.29759 1.52591,-12.74016 v 0 c -3.49095,-2.4661 -5.27225,-7.35963 -4.41501,-12.12885 0.85724,-4.76921 4.15875,-8.33335 8.18294,-8.83389 z"
       id="path157"
       inkscape:connector-curvature="0"
       style="fill-rule:evenodd;stroke:#595959;stroke-width:1;stroke-linecap:butt;stroke-linejoin:round" />
    <path
       d="m 249.55017,210.99557 v 0 c 1.64738,1.16376 3.55051,1.69167 5.45384,1.51285 m 2.49294,17.32072 c 0.81851,-0.11496 1.62079,-0.35841 2.38617,-0.72406 m 20.59732,7.92569 c -0.57569,-1.03618 -1.05768,-2.1434 -1.43778,-3.30284 m 27.43762,-1.34956 v 0 c 0.297,-1.1803 0.48944,-2.3951 0.5741,-3.6241 m 18.4758,-8.92275 c 0.0385,-5.75497 -2.68487,-11.02427 -7.00037,-13.5446 M 335.0336,191.8469 c -0.69888,1.95967 -1.76578,3.69808 -3.1171,5.07889 m -4.41845,-23.84033 v 0 c 0.11908,0.79137 0.17419,1.59462 0.16458,2.39863 m -18.43296,-8.27345 v 0 c -0.65283,0.92203 -1.1907,1.95239 -1.59683,3.05899 m -14.28598,-1.25383 v 0 c -0.3479,0.83747 -0.60769,1.72367 -0.77341,2.63816 m -17.42175,0.72158 v 0 c 1.01581,0.71407 1.95557,1.57351 2.79865,2.55947 m -24.55489,14.84289 v 0 c 0.10336,0.91167 0.26666,1.81209 0.4884,2.69284"
       id="path159"
       inkscape:connector-curvature="0"
       style="fill-rule:evenodd;stroke:#595959;stroke-width:1;stroke-linecap:butt;stroke-linejoin:round" />
    <defs
       id="defs166">
      <radialGradient
         id="g3970c0bd8c_0_0.2"
         gradientUnits="userSpaceOnUse"
         gradientTransform="scale(-7.1977959,7.1977959)"
         spreadMethod="pad"
         cx="-47.862419"
         cy="37.997925"
         fx="-47.862419"
         fy="37.997925"
         r="7.1977959">
        <stop
           offset="0.0"
           stop-color="#bfbfbf"
           id="stop161" />
        <stop
           offset="1.0"
           stop-color="#737373"
           id="stop163" />
      </radialGradient>
    </defs>
    <path
       d="m 325.00787,321.5013 v 0 c 21.53476,0 38.99213,-21.49033 38.99213,-48 0,-26.50967 -17.45737,-48 -38.99213,-48 v 0 c 14.18692,9.65948 22.99249,28.04231 22.99249,48 0,19.95767 -8.80557,38.34051 -22.99249,48 z"
       id="path168"
       inkscape:connector-curvature="0"
       style="fill:url(#g3970c0bd8c_0_0.2);fill-rule:evenodd" />
    <defs
       id="defs175">
      <radialGradient
         id="g3970c0bd8c_0_0.3"
         gradientUnits="userSpaceOnUse"
         gradientTransform="scale(9.4392223)"
         spreadMethod="pad"
         cx="30.882198"
         cy="28.974983"
         fx="30.882198"
         fy="28.974983"
         r="9.4392223">
        <stop
           offset="0.0"
           stop-color="#bfbfbf"
           id="stop170" />
        <stop
           offset="1.0"
           stop-color="#737373"
           id="stop172" />
      </radialGradient>
    </defs>
    <path
       d="m 245,209.1273 v 0 c 0,6.42085 20.82053,11.62598 46.50394,11.62598 25.68341,0 46.50393,-5.20513 46.50393,-11.62598 v 128.74803 c 0,6.42084 -20.82052,11.62598 -46.50393,11.62598 C 265.82053,349.50131 245,344.29617 245,337.87533 Z"
       id="path177"
       inkscape:connector-curvature="0"
       style="fill:url(#g3970c0bd8c_0_0.3);fill-rule:evenodd" />
    <defs
       id="defs184">
      <radialGradient
         id="g3970c0bd8c_0_0.4"
         gradientUnits="userSpaceOnUse"
         gradientTransform="scale(9.4392223)"
         spreadMethod="pad"
         cx="30.882198"
         cy="28.974983"
         fx="30.882198"
         fy="28.974983"
         r="9.4392223">
        <stop
           offset="0.0"
           stop-color="#bfbfbf"
           id="stop179" />
        <stop
           offset="1.0"
           stop-color="#737373"
           id="stop181" />
      </radialGradient>
    </defs>
    <path
       d="m 245,209.1273 v 0 c 0,-6.42087 20.82053,-11.62599 46.50394,-11.62599 25.68341,0 46.50393,5.20512 46.50393,11.62599 v 0 c 0,6.42085 -20.82052,11.62598 -46.50393,11.62598 C 265.82053,220.75328 245,215.54815 245,209.1273 Z"
       id="path186"
       inkscape:connector-curvature="0"
       style="fill:url(#g3970c0bd8c_0_0.4);fill-rule:evenodd" />
    <path
       d="m 338.00787,209.1273 v 0 c 0,6.42085 -20.82053,11.62598 -46.50394,11.62598 C 265.82052,220.75328 245,215.54815 245,209.1273 v 0 c 0,-6.42087 20.82052,-11.62599 46.50393,-11.62599 25.68341,0 46.50394,5.20512 46.50394,11.62599 v 128.74803 c 0,6.42084 -20.82053,11.62598 -46.50394,11.62598 C 265.82052,349.50131 245,344.29617 245,337.87533 V 209.1273"
       id="path188"
       inkscape:connector-curvature="0"
       style="fill:#000000;fill-opacity:0;fill-rule:evenodd" />
    <path
       d="m 245,209.1273 v 0 c 0,-6.42087 20.82053,-11.62599 46.50394,-11.62599 25.68341,0 46.50393,5.20512 46.50393,11.62599 v 0 c 0,6.42085 -20.82052,11.62598 -46.50393,11.62598 C 265.82053,220.75328 245,215.54815 245,209.1273 Z"
       id="path190"
       inkscape:connector-curvature="0"
       style="fill:#ffffff;fill-opacity:0.4;fill-rule:evenodd" />
    <defs
       id="defs197">
      <radialGradient
         id="g3970c0bd8c_0_0.5"
         gradientUnits="userSpaceOnUse"
         gradientTransform="scale(7.0056956)"
         spreadMethod="pad"
         cx="41.607342"
         cy="29.56286"
         fx="41.607342"
         fy="29.56286"
         r="7.0056953">
        <stop
           offset="0.0"
           stop-color="#fff6db"
           id="stop192" />
        <stop
           offset="1.0"
           stop-color="#fad25c"
           id="stop194" />
      </radialGradient>
    </defs>
    <path
       d="m 253.39677,201.81302 v 0 c -0.74992,-2.5006 1.71222,-4.97603 6.34166,-6.37589 4.62942,-1.39985 10.61426,-1.47863 15.41486,-0.20291 v 0 c 1.70053,-1.45395 4.81301,-2.45779 8.39593,-2.7079 3.58295,-0.2501 7.21552,0.2829 9.79898,1.43781 v 0 c 1.44861,-1.31824 4.29303,-2.20394 7.5239,-2.34279 3.23083,-0.13884 6.39087,0.4888 8.35876,1.66022 v 0 c 2.61716,-1.39734 6.78113,-1.98568 10.69016,-1.51044 3.90899,0.47523 6.86093,1.9287 7.57852,3.73144 v 0 c 3.20645,0.39686 5.87738,1.40571 7.32266,2.76587 1.44531,1.36019 1.52319,2.93828 0.21356,4.32656 v 0 c 3.15741,1.86461 3.89603,4.34916 1.94016,6.52649 -1.95584,2.17732 -6.31235,3.72029 -11.4437,4.0531 -0.0362,2.0435 -2.5061,3.91858 -6.45782,4.90252 -3.95175,0.98394 -8.76816,0.92308 -12.59281,-0.15911 -1.62909,2.44744 -6.21444,4.24824 -11.77502,4.6244 -5.56058,0.37614 -11.09952,-0.73978 -14.22382,-2.86568 -3.82974,1.04787 -8.42511,1.34972 -12.74948,0.83748 -4.32434,-0.51224 -8.01345,-1.79544 -10.23513,-3.5601 v 0 c -3.9135,0.20779 -7.69733,-0.71221 -9.47356,-2.30341 -1.77625,-1.5912 -1.16678,-3.51488 1.52591,-4.81631 v 0 c -3.49095,-0.9323 -5.27225,-2.78226 -4.41501,-4.58522 0.85724,-1.80297 4.15875,-3.15036 8.18294,-3.33959 z"
       id="path199"
       inkscape:connector-curvature="0"
       style="fill:url(#g3970c0bd8c_0_0.5);fill-rule:evenodd" />
    <path
       d="m 249.55148,209.83418 v 0 c 1.64738,0.43994 3.55051,0.63953 5.45384,0.57191 m 2.49294,6.54796 c 0.81851,-0.0435 1.62079,-0.13548 2.38617,-0.27371 m 20.59732,2.99623 c -0.57569,-0.39171 -1.05768,-0.81029 -1.43778,-1.24861 m 27.43762,-0.51018 v 0 c 0.297,-0.44621 0.48944,-0.90545 0.5741,-1.37007 m 18.4758,-3.37317 c 0.0385,-2.17563 -2.68487,-4.16763 -7.00037,-5.12042 m 16.50379,-5.45894 c -0.69888,0.74083 -1.76578,1.39803 -3.1171,1.92003 m -4.41845,-9.01265 v 0 c 0.11908,0.29918 0.17419,0.60283 0.16458,0.90678 m -18.43296,-3.1277 v 0 c -0.65283,0.34856 -1.1907,0.73809 -1.59683,1.15642 m -14.28598,-0.474 v 0 c -0.3479,0.31661 -0.60769,0.65161 -0.77341,0.99733 m -17.42175,0.2728 v 0 c 1.01581,0.26994 1.95557,0.59485 2.79865,0.96757 m -24.55489,5.61126 v 0 c 0.10336,0.34463 0.26666,0.68504 0.4884,1.018"
       id="path201"
       inkscape:connector-curvature="0"
       style="fill:#000000;fill-opacity:0;fill-rule:evenodd" />
    <path
       d="m 578.5956,195.86668 v 0 c 3.72247,-8.05379 16.19507,-10.21834 27.85828,-4.83464 v 0 c 11.6632,5.38368 18.1004,16.27692 14.37793,24.3307 v 0 c -3.72248,8.05379 -16.19507,10.21834 -27.85828,4.83464 v 0 c -11.66321,-5.38368 -18.1004,-16.27691 -14.37793,-24.3307 z"
       id="path203"
       inkscape:connector-curvature="0"
       style="fill:#000000;fill-rule:evenodd" />
    <path
       d="m 572.76495,232.4122 v 0 c 0.44763,-4.24205 4.2677,-7.6104 8.53241,-7.52342 l 30.88684,0.62991 v 0 c 2.04797,0.0418 3.9267,0.89107 5.22284,2.36104 1.29614,1.46999 1.90356,3.44025 1.6886,5.47734 l -5.11914,48.51222 c -0.44763,4.24204 -4.26776,7.61038 -8.53247,7.52341 l -30.88684,-0.62991 c -4.26471,-0.087 -7.35901,-3.59635 -6.91138,-7.83838 z"
       id="path205"
       inkscape:connector-curvature="0"
       style="fill:#000000;fill-rule:evenodd" />
    <path
       d="m 566.1289,286.80295 21.41736,1.48032 -8.06299,58.92914 -21.41736,-1.48032 z"
       id="path207"
       inkscape:connector-curvature="0"
       style="fill:#000000;fill-rule:evenodd" />
    <path
       d="m 577.97034,229.04547 v 0 c 3.01331,-1.92673 6.3457,-0.72902 7.44305,2.67514 l 0.34113,1.05827 v 0 c 0.52698,1.63474 0.45746,3.57007 -0.19312,5.38025 -0.65063,1.81017 -1.82904,3.34691 -3.27612,4.27216 l -18.34759,11.7314 c -3.01331,1.92673 -6.34571,0.72902 -7.443,-2.67514 l -0.34118,-1.05829 c -1.09735,-3.40414 0.45587,-7.72568 3.46924,-9.65241 z"
       id="path209"
       inkscape:connector-curvature="0"
       style="fill:#000000;fill-rule:evenodd" />
    <path
       d="m 577.97034,229.04547 v 0 c 3.01331,-1.92673 6.3457,-0.72902 7.44305,2.67514 l 0.34113,1.05827 v 0 c 0.52698,1.63474 0.45746,3.57007 -0.19312,5.38025 -0.65063,1.81017 -1.82904,3.34691 -3.27612,4.27216 l -18.34759,11.7314 c -3.01331,1.92673 -6.34571,0.72902 -7.443,-2.67514 l -0.34118,-1.05829 c -1.09735,-3.40414 0.45587,-7.72568 3.46924,-9.65241 z"
       id="path211"
       inkscape:connector-curvature="0"
       style="fill-rule:evenodd;stroke:#000000;stroke-width:3;stroke-linecap:butt;stroke-linejoin:round" />
    <path
       d="m 569.7506,246.09096 v 0 c 1.16278,0.73866 1.24518,2.04959 0.18408,2.92804 l -7.685,6.36215 v 0 c -0.50952,0.42185 -1.22003,0.6855 -1.97515,0.73299 -0.75519,0.0474 -1.49311,-0.12515 -2.05146,-0.47988 l -37.58459,-23.87625 c -1.16272,-0.73866 -1.24518,-2.04959 -0.18402,-2.92804 l 7.68493,-6.36215 c 1.0611,-0.87845 2.8639,-0.99177 4.02668,-0.25311 z"
       id="path213"
       inkscape:connector-curvature="0"
       style="fill:#000000;fill-rule:evenodd" />
    <path
       d="m 569.7506,246.09096 v 0 c 1.16278,0.73866 1.24518,2.04959 0.18408,2.92804 l -7.685,6.36215 v 0 c -0.50952,0.42185 -1.22003,0.6855 -1.97515,0.73299 -0.75519,0.0474 -1.49311,-0.12515 -2.05146,-0.47988 l -37.58459,-23.87625 c -1.16272,-0.73866 -1.24518,-2.04959 -0.18402,-2.92804 l 7.68493,-6.36215 c 1.0611,-0.87845 2.8639,-0.99177 4.02668,-0.25311 z"
       id="path215"
       inkscape:connector-curvature="0"
       style="fill-rule:evenodd;stroke:#ffffff;stroke-width:3;stroke-linecap:butt;stroke-linejoin:round" />
    <path
       d="m 586.16364,171.07419 v 0 c 1.73657,-2.4483 15.82245,4.55887 31.46167,15.65094 v 0 c 15.63922,11.09209 26.90955,22.06873 25.17297,24.51703 v 0 c -1.73663,2.4483 -15.82251,-4.55887 -31.46173,-15.65094 v 0 c -15.63922,-11.09209 -26.90954,-22.06873 -25.17291,-24.51703 z"
       id="path217"
       inkscape:connector-curvature="0"
       style="fill:#000000;fill-rule:evenodd" />
    <path
       d="m 586.16364,171.07419 v 0 c 1.73657,-2.4483 15.82245,4.55887 31.46167,15.65094 v 0 c 15.63922,11.09209 26.90955,22.06873 25.17297,24.51703 v 0 c -1.73663,2.4483 -15.82251,-4.55887 -31.46173,-15.65094 v 0 c -15.63922,-11.09209 -26.90954,-22.06873 -25.17291,-24.51703 z"
       id="path219"
       inkscape:connector-curvature="0"
       style="fill-rule:evenodd;stroke:#595959;stroke-width:1;stroke-linecap:butt;stroke-linejoin:round" />
    <path
       d="m 609.8521,163.03682 32.70032,23.1926 c 0.69488,0.49287 1.16559,1.24162 1.30841,2.08151 0.14288,0.83989 -0.0538,1.70213 -0.54669,2.39703 l -9.29224,13.10047 c -1.2e-4,1.8e-4 -3.7e-4,2.1e-4 -5.5e-4,9e-5 l -37.94019,-26.90947 v 0 c -1.8e-4,-1.2e-4 -2.4e-4,-3.7e-4 -1.2e-4,-5.5e-4 l 9.29236,-13.09992 v 0 c 1.02637,-1.44708 3.03156,-1.78813 4.4787,-0.76176 z"
       id="path221"
       inkscape:connector-curvature="0"
       style="fill:#000000;fill-rule:evenodd" />
    <path
       d="m 609.8521,163.03682 32.70032,23.1926 c 0.69488,0.49287 1.16559,1.24162 1.30841,2.08151 0.14288,0.83989 -0.0538,1.70213 -0.54669,2.39703 l -9.29224,13.10047 c -1.2e-4,1.8e-4 -3.7e-4,2.1e-4 -5.5e-4,9e-5 l -37.94019,-26.90947 v 0 c -1.8e-4,-1.2e-4 -2.4e-4,-3.7e-4 -1.2e-4,-5.5e-4 l 9.29236,-13.09992 v 0 c 1.02637,-1.44708 3.03156,-1.78813 4.4787,-0.76176 z"
       id="path223"
       inkscape:connector-curvature="0"
       style="fill-rule:evenodd;stroke:#595959;stroke-width:1;stroke-linecap:butt;stroke-linejoin:round" />
    <path
       d="m 591.3153,290.41394 21.10236,-3.90549 6.89764,59.08661 -21.10236,3.90552 z"
       id="path225"
       inkscape:connector-curvature="0"
       style="fill:#000000;fill-rule:evenodd" />
    <path
       d="m 613.5854,233.8409 v 0 c -2.77368,-2.16788 -5.74945,-1.16566 -6.64655,2.23849 l -0.27887,1.05829 v 0 c -0.43078,1.63474 -0.31481,3.61606 0.32239,5.50812 0.63721,1.89208 1.74353,3.53987 3.0755,4.58092 l 13.89252,10.85812 c 2.77374,2.16788 5.74951,1.16565 6.64661,-2.23851 l 0.27887,-1.05827 c 0.89709,-3.40416 -0.62421,-7.92117 -3.39789,-10.08905 z"
       id="path227"
       inkscape:connector-curvature="0"
       style="fill:#000000;fill-rule:evenodd" />
    <path
       d="m 613.5854,233.8409 v 0 c -2.77368,-2.16788 -5.74945,-1.16566 -6.64655,2.23849 l -0.27887,1.05829 v 0 c -0.43078,1.63474 -0.31481,3.61606 0.32239,5.50812 0.63721,1.89208 1.74353,3.53987 3.0755,4.58092 l 13.89252,10.85812 c 2.77374,2.16788 5.74951,1.16565 6.64661,-2.23851 l 0.27887,-1.05827 c 0.89709,-3.40416 -0.62421,-7.92117 -3.39789,-10.08905 z"
       id="path229"
       inkscape:connector-curvature="0"
       style="fill-rule:evenodd;stroke:#000000;stroke-width:3;stroke-linecap:butt;stroke-linejoin:round" />
    <path
       d="m 627.0663,244.76735 v 0 c -0.56989,-1.14317 -1.62885,-1.2238 -2.36523,-0.18008 l -5.33326,7.55897 v 0 c -0.35363,0.50121 -0.5841,1.19997 -0.64062,1.94255 -0.0565,0.74259 0.0654,1.46817 0.33911,2.01714 l 19.00714,38.12793 c 0.56989,1.14319 1.62885,1.22381 2.36524,0.18011 l 5.33325,-7.55899 c 0.73639,-1.0437 0.8714,-2.81653 0.30151,-3.95968 z"
       id="path231"
       inkscape:connector-curvature="0"
       style="fill:#000000;fill-rule:evenodd" />
    <path
       d="m 627.0663,244.76735 v 0 c -0.56989,-1.14317 -1.62885,-1.2238 -2.36523,-0.18008 l -5.33326,7.55897 v 0 c -0.35363,0.50121 -0.5841,1.19997 -0.64062,1.94255 -0.0565,0.74259 0.0654,1.46817 0.33911,2.01714 l 19.00714,38.12793 c 0.56989,1.14319 1.62885,1.22381 2.36524,0.18011 l 5.33325,-7.55899 c 0.73639,-1.0437 0.8714,-2.81653 0.30151,-3.95968 z"
       id="path233"
       inkscape:connector-curvature="0"
       style="fill-rule:evenodd;stroke:#ffffff;stroke-width:3;stroke-linecap:butt;stroke-linejoin:round" />
    <path
       d="m 467.99997,215.21141 10.71613,-57.15346 92.21146,29.12235 -6.42963,34.29207 z"
       id="path235"
       inkscape:connector-curvature="0"
       style="fill:#000000;fill-rule:evenodd" />
    <path
       d="m 518,236.17061 10.99213,-35.49606 h 10.99212 L 518,271.66666 Z"
       id="path237"
       inkscape:connector-curvature="0"
       style="fill:#000000;fill-rule:evenodd" />
    <path
       d="m 206,116.50131 h 477.00787 v 268 H 206 Z"
       id="path239"
       inkscape:connector-curvature="0"
       style="fill:#000000;fill-opacity:0;fill-rule:evenodd" />
    <path
       d="m 206,116.50131 h 477.00787 v 268 H 206 Z"
       id="path241"
       inkscape:connector-curvature="0"
       style="fill-rule:evenodd;stroke:#000000;stroke-width:1;stroke-linecap:butt;stroke-linejoin:round" />
  </g>
</svg>
